<svg xmlns="http://www.w3.org/2000/svg" xmlns:xlink="http://www.w3.org/1999/xlink" width="500" zoomAndPan="magnify" viewBox="0 0 375 374.999991" height="500" preserveAspectRatio="xMidYMid meet" version="1.2"><defs><clipPath id="83d201b151"><path d="M 123 301.402344 L 241 301.402344 L 241 302.902344 L 123 302.902344 Z M 123 301.402344 "/></clipPath><clipPath id="e8e061ec5e"><path d="M 167.144531 53 L 178.890625 53 L 178.890625 231 L 167.144531 231 Z M 167.144531 53 "/></clipPath><clipPath id="e7b50607b0"><path d="M 0.542969 0.75 L 213 0.75 L 213 249.207031 L 0.542969 249.207031 Z M 0.542969 0.75 "/></clipPath><clipPath id="faac18d2a5"><path d="M 120.609375 103 L 130.550781 103 L 130.550781 251 L 120.609375 251 Z M 120.609375 103 "/></clipPath><clipPath id="453860b94b"><path d="M 148.207031 67 L 158.144531 67 L 158.144531 216 L 148.207031 216 Z M 148.207031 67 "/></clipPath><clipPath id="e20fe2cdac"><rect x="0" width="226" y="0" height="253"/></clipPath></defs><g id="a795cea4dc"><rect x="0" width="375" y="0" height="374.999991" style="fill:#ffffff;fill-opacity:1;stroke:none;"/><rect x="0" width="375" y="0" height="374.999991" style="fill:#000000;fill-opacity:1;stroke:none;"/><g clip-rule="nonzero" clip-path="url(#83d201b151)"><path style=" stroke:none;fill-rule:nonzero;fill:#ffffff;fill-opacity:1;" d="M 240.980469 302.632812 L 123.125 302.632812 L 123.125 301.398438 L 240.980469 301.398438 L 240.980469 302.632812 "/></g><g style="fill:#ffffff;fill-opacity:1;"><g transform="translate(57.433594, 290.701359)"><path style="stroke:none" d="M 7.203125 -5.421875 L 14.59375 -5.421875 C 15.414062 -5.421875 16.046875 -5.15625 16.484375 -4.625 C 16.921875 -4.09375 17.140625 -3.457031 17.140625 -2.71875 C 17.140625 -1.976562 16.921875 -1.335938 16.484375 -0.796875 C 16.046875 -0.265625 15.414062 0 14.59375 0 L 3.375 0 C 1.601562 0 0.71875 -0.90625 0.71875 -2.71875 L 0.703125 -9.71875 L 0.765625 -10.9375 C 0.859375 -11.757812 1.046875 -12.570312 1.328125 -13.375 C 1.742188 -14.570312 2.382812 -15.640625 3.25 -16.578125 C 4.113281 -17.515625 5.175781 -18.269531 6.4375 -18.84375 C 7.707031 -19.425781 9.203125 -19.71875 10.921875 -19.71875 L 13.84375 -19.71875 C 14.300781 -19.71875 14.703125 -19.632812 15.046875 -19.46875 C 15.390625 -19.3125 15.675781 -19.101562 15.90625 -18.84375 C 16.144531 -18.582031 16.320312 -18.285156 16.4375 -17.953125 C 16.5625 -17.628906 16.625 -17.289062 16.625 -16.9375 C 16.625 -16.582031 16.5625 -16.234375 16.4375 -15.890625 C 16.320312 -15.554688 16.144531 -15.265625 15.90625 -15.015625 C 15.675781 -14.765625 15.390625 -14.5625 15.046875 -14.40625 C 14.703125 -14.25 14.300781 -14.171875 13.84375 -14.171875 L 10.5 -14.171875 C 9.738281 -14.171875 9.078125 -14.046875 8.515625 -13.796875 C 7.953125 -13.554688 7.46875 -13.179688 7.0625 -12.671875 C 6.664062 -12.160156 6.421875 -11.359375 6.328125 -10.265625 C 6.234375 -9.179688 6.210938 -7.785156 6.265625 -6.078125 C 6.347656 -5.660156 6.660156 -5.441406 7.203125 -5.421875 Z M 7.203125 -5.421875 "/></g></g><g style="fill:#ffffff;fill-opacity:1;"><g transform="translate(74.862808, 290.701359)"><path style="stroke:none" d="M 12.390625 -12.078125 L 12.390625 -14.671875 L 8.96875 -14.671875 C 7.269531 -14.671875 6.421875 -13.863281 6.421875 -12.25 L 6.421875 -12.0625 C 6.523438 -11.957031 6.765625 -11.894531 7.140625 -11.875 L 11.765625 -11.875 C 12.109375 -11.90625 12.316406 -11.972656 12.390625 -12.078125 Z M 12.375 -6.71875 C 12.269531 -6.800781 12.003906 -6.851562 11.578125 -6.875 L 11.578125 -6.890625 L 6.984375 -6.890625 C 6.722656 -6.867188 6.535156 -6.832031 6.421875 -6.78125 L 6.421875 -2.90625 C 6.421875 -2.46875 6.347656 -2.082031 6.203125 -1.75 C 6.054688 -1.414062 5.859375 -1.132812 5.609375 -0.90625 C 5.367188 -0.6875 5.085938 -0.515625 4.765625 -0.390625 C 4.441406 -0.265625 4.101562 -0.203125 3.75 -0.203125 C 3 -0.203125 2.351562 -0.4375 1.8125 -0.90625 C 1.269531 -1.375 1 -2.039062 1 -2.90625 L 1 -11.140625 C 0.988281 -16.804688 3.535156 -19.691406 8.640625 -19.796875 C 8.753906 -19.804688 8.867188 -19.8125 8.984375 -19.8125 L 15.09375 -19.8125 C 16.875 -19.800781 17.757812 -18.890625 17.75 -17.078125 L 17.734375 -2.6875 C 17.734375 -1.832031 17.46875 -1.175781 16.9375 -0.71875 C 16.40625 -0.257812 15.773438 -0.03125 15.046875 -0.03125 C 14.328125 -0.03125 13.695312 -0.257812 13.15625 -0.71875 C 12.625 -1.1875 12.363281 -1.84375 12.375 -2.6875 Z M 12.375 -6.71875 "/></g></g><g style="fill:#ffffff;fill-opacity:1;"><g transform="translate(93.522319, 290.701359)"><path style="stroke:none" d="M 5.859375 -13.890625 L 5.859375 -2.5625 C 5.859375 -1.726562 5.59375 -1.09375 5.0625 -0.65625 C 4.53125 -0.21875 3.894531 0 3.15625 0 C 2.414062 0 1.773438 -0.21875 1.234375 -0.65625 C 0.703125 -1.09375 0.4375 -1.726562 0.4375 -2.5625 L 0.4375 -16.90625 C 0.4375 -18.6875 1.34375 -19.578125 3.15625 -19.578125 L 7.828125 -19.59375 L 9.046875 -19.53125 C 9.867188 -19.4375 10.679688 -19.25 11.484375 -18.96875 C 12.691406 -18.539062 13.757812 -17.894531 14.6875 -17.03125 C 15.625 -16.175781 16.378906 -15.113281 16.953125 -13.84375 C 17.535156 -12.582031 17.828125 -11.085938 17.828125 -9.359375 L 17.828125 -2.75 C 17.828125 -2.289062 17.742188 -1.890625 17.578125 -1.546875 C 17.421875 -1.210938 17.210938 -0.925781 16.953125 -0.6875 C 16.703125 -0.445312 16.410156 -0.265625 16.078125 -0.140625 C 15.753906 -0.0234375 15.410156 0.03125 15.046875 0.03125 C 14.691406 0.03125 14.347656 -0.0234375 14.015625 -0.140625 C 13.679688 -0.265625 13.382812 -0.445312 13.125 -0.6875 C 12.875 -0.925781 12.671875 -1.210938 12.515625 -1.546875 C 12.359375 -1.890625 12.28125 -2.289062 12.28125 -2.75 L 12.28125 -9.796875 C 12.28125 -10.554688 12.15625 -11.21875 11.90625 -11.78125 C 11.664062 -12.34375 11.289062 -12.820312 10.78125 -13.21875 C 10.269531 -13.625 9.46875 -13.875 8.375 -13.96875 C 8.082031 -13.988281 7.800781 -14.007812 7.53125 -14.03125 L 6.484375 -14.03125 C 6.179688 -14.007812 5.972656 -13.960938 5.859375 -13.890625 Z M 5.859375 -13.890625 "/></g></g><g style="fill:#ffffff;fill-opacity:1;"><g transform="translate(111.785394, 290.701359)"><path style="stroke:none" d="M 9.140625 -5.453125 L 18.90625 -5.453125 C 19.769531 -5.453125 20.4375 -5.1875 20.90625 -4.65625 C 21.382812 -4.132812 21.625 -3.5 21.625 -2.75 C 21.625 -2 21.382812 -1.351562 20.90625 -0.8125 C 20.4375 -0.269531 19.769531 0 18.90625 0 L 4.09375 0 L 4.09375 -0.0625 C 3.90625 -0.0078125 3.71875 0.015625 3.53125 0.015625 C 2.820312 0.0234375 2.179688 -0.207031 1.609375 -0.6875 C 1.046875 -1.164062 0.703125 -1.753906 0.578125 -2.453125 C 0.460938 -3.148438 0.695312 -3.84375 1.28125 -4.53125 L 13.078125 -18.703125 C 13.640625 -19.367188 14.273438 -19.710938 14.984375 -19.734375 C 15.097656 -19.734375 15.21875 -19.726562 15.34375 -19.71875 L 18.90625 -19.71875 C 19.769531 -19.71875 20.4375 -19.445312 20.90625 -18.90625 C 21.382812 -18.363281 21.625 -17.71875 21.625 -16.96875 C 21.625 -16.21875 21.382812 -15.570312 20.90625 -15.03125 C 20.4375 -14.488281 19.769531 -14.21875 18.90625 -14.21875 L 16.4375 -14.21875 L 14.875 -12.34375 L 19.0625 -12.34375 C 19.84375 -12.34375 20.453125 -12.097656 20.890625 -11.609375 C 21.328125 -11.117188 21.546875 -10.535156 21.546875 -9.859375 C 21.546875 -9.179688 21.328125 -8.597656 20.890625 -8.109375 C 20.453125 -7.617188 19.84375 -7.375 19.0625 -7.375 L 10.734375 -7.375 Z M 9.140625 -5.453125 "/></g></g><g style="fill:#ffffff;fill-opacity:1;"><g transform="translate(134.518555, 290.701359)"><path style="stroke:none" d="M 7.203125 -5.421875 L 14.59375 -5.421875 C 15.414062 -5.421875 16.046875 -5.15625 16.484375 -4.625 C 16.921875 -4.09375 17.140625 -3.457031 17.140625 -2.71875 C 17.140625 -1.976562 16.921875 -1.335938 16.484375 -0.796875 C 16.046875 -0.265625 15.414062 0 14.59375 0 L 3.375 0 C 1.601562 0 0.71875 -0.90625 0.71875 -2.71875 L 0.703125 -9.71875 L 0.765625 -10.9375 C 0.859375 -11.757812 1.046875 -12.570312 1.328125 -13.375 C 1.742188 -14.570312 2.382812 -15.640625 3.25 -16.578125 C 4.113281 -17.515625 5.175781 -18.269531 6.4375 -18.84375 C 7.707031 -19.425781 9.203125 -19.71875 10.921875 -19.71875 L 13.84375 -19.71875 C 14.300781 -19.71875 14.703125 -19.632812 15.046875 -19.46875 C 15.390625 -19.3125 15.675781 -19.101562 15.90625 -18.84375 C 16.144531 -18.582031 16.320312 -18.285156 16.4375 -17.953125 C 16.5625 -17.628906 16.625 -17.289062 16.625 -16.9375 C 16.625 -16.582031 16.5625 -16.234375 16.4375 -15.890625 C 16.320312 -15.554688 16.144531 -15.265625 15.90625 -15.015625 C 15.675781 -14.765625 15.390625 -14.5625 15.046875 -14.40625 C 14.703125 -14.25 14.300781 -14.171875 13.84375 -14.171875 L 10.5 -14.171875 C 9.738281 -14.171875 9.078125 -14.046875 8.515625 -13.796875 C 7.953125 -13.554688 7.46875 -13.179688 7.0625 -12.671875 C 6.664062 -12.160156 6.421875 -11.359375 6.328125 -10.265625 C 6.234375 -9.179688 6.210938 -7.785156 6.265625 -6.078125 C 6.347656 -5.660156 6.660156 -5.441406 7.203125 -5.421875 Z M 7.203125 -5.421875 "/></g></g><g style="fill:#ffffff;fill-opacity:1;"><g transform="translate(151.947769, 290.701359)"><path style="stroke:none" d="M 12.390625 -12.078125 L 12.390625 -14.671875 L 8.96875 -14.671875 C 7.269531 -14.671875 6.421875 -13.863281 6.421875 -12.25 L 6.421875 -12.0625 C 6.523438 -11.957031 6.765625 -11.894531 7.140625 -11.875 L 11.765625 -11.875 C 12.109375 -11.90625 12.316406 -11.972656 12.390625 -12.078125 Z M 12.375 -6.71875 C 12.269531 -6.800781 12.003906 -6.851562 11.578125 -6.875 L 11.578125 -6.890625 L 6.984375 -6.890625 C 6.722656 -6.867188 6.535156 -6.832031 6.421875 -6.78125 L 6.421875 -2.90625 C 6.421875 -2.46875 6.347656 -2.082031 6.203125 -1.75 C 6.054688 -1.414062 5.859375 -1.132812 5.609375 -0.90625 C 5.367188 -0.6875 5.085938 -0.515625 4.765625 -0.390625 C 4.441406 -0.265625 4.101562 -0.203125 3.75 -0.203125 C 3 -0.203125 2.351562 -0.4375 1.8125 -0.90625 C 1.269531 -1.375 1 -2.039062 1 -2.90625 L 1 -11.140625 C 0.988281 -16.804688 3.535156 -19.691406 8.640625 -19.796875 C 8.753906 -19.804688 8.867188 -19.8125 8.984375 -19.8125 L 15.09375 -19.8125 C 16.875 -19.800781 17.757812 -18.890625 17.75 -17.078125 L 17.734375 -2.6875 C 17.734375 -1.832031 17.46875 -1.175781 16.9375 -0.71875 C 16.40625 -0.257812 15.773438 -0.03125 15.046875 -0.03125 C 14.328125 -0.03125 13.695312 -0.257812 13.15625 -0.71875 C 12.625 -1.1875 12.363281 -1.84375 12.375 -2.6875 Z M 12.375 -6.71875 "/></g></g><g style="fill:#ffffff;fill-opacity:1;"><g transform="translate(170.607279, 290.701359)"><path style="stroke:none" d="M 14.03125 -7.609375 L 16.96875 -3.890625 C 17.507812 -3.171875 17.675781 -2.492188 17.46875 -1.859375 C 17.269531 -1.234375 16.882812 -0.738281 16.3125 -0.375 C 15.71875 0 15.09375 0.140625 14.4375 0.046875 C 13.789062 -0.046875 13.191406 -0.445312 12.640625 -1.15625 L 7.46875 -7.765625 C 7.039062 -8.453125 6.921875 -9.113281 7.109375 -9.75 C 7.242188 -10.226562 7.453125 -10.632812 7.734375 -10.96875 C 7.753906 -10.988281 7.769531 -11.003906 7.78125 -11.015625 C 8.1875 -11.398438 8.679688 -11.613281 9.265625 -11.65625 L 10.125 -11.65625 L 11.640625 -11.671875 C 12.359375 -11.640625 12.910156 -11.632812 13.296875 -11.65625 L 10.671875 -14.5 L 6.609375 -14.5 C 6.492188 -14.46875 6.410156 -14.425781 6.359375 -14.375 L 6.359375 -14.0625 L 6.34375 -14.0625 L 6.34375 -2.734375 L 6.328125 -2.734375 C 6.328125 -0.910156 5.414062 0 3.59375 0 C 1.957031 0 1.140625 -0.925781 1.140625 -2.78125 L 1.140625 -16.96875 C 1.140625 -18.800781 1.910156 -19.71875 3.453125 -19.71875 L 11.375 -19.71875 C 12.070312 -19.71875 13 -19.195312 14.15625 -18.15625 L 16.546875 -15.1875 C 17.367188 -14.082031 17.765625 -13.125 17.734375 -12.3125 C 17.765625 -12.0625 17.765625 -11.835938 17.734375 -11.640625 L 17.734375 -10.234375 C 17.734375 -9.359375 17.460938 -8.703125 16.921875 -8.265625 C 16.390625 -7.828125 15.765625 -7.609375 15.046875 -7.609375 Z M 14.03125 -7.609375 "/></g></g><g style="fill:#ffffff;fill-opacity:1;"><g transform="translate(188.99339, 290.701359)"><path style="stroke:none" d="M 6.515625 -2.59375 C 6.515625 -1.707031 6.242188 -1.035156 5.703125 -0.578125 C 5.160156 -0.117188 4.523438 0.109375 3.796875 0.109375 C 3.054688 0.109375 2.414062 -0.117188 1.875 -0.578125 C 1.34375 -1.035156 1.078125 -1.707031 1.078125 -2.59375 L 1.078125 -17.109375 C 1.078125 -17.972656 1.34375 -18.632812 1.875 -19.09375 C 2.414062 -19.5625 3.054688 -19.796875 3.796875 -19.796875 C 4.523438 -19.796875 5.160156 -19.5625 5.703125 -19.09375 C 6.242188 -18.632812 6.515625 -17.972656 6.515625 -17.109375 Z M 6.515625 -2.59375 "/></g></g><g style="fill:#ffffff;fill-opacity:1;"><g transform="translate(196.662247, 290.701359)"><path style="stroke:none" d="M 12.390625 -12.078125 L 12.390625 -14.671875 L 8.96875 -14.671875 C 7.269531 -14.671875 6.421875 -13.863281 6.421875 -12.25 L 6.421875 -12.0625 C 6.523438 -11.957031 6.765625 -11.894531 7.140625 -11.875 L 11.765625 -11.875 C 12.109375 -11.90625 12.316406 -11.972656 12.390625 -12.078125 Z M 12.375 -6.71875 C 12.269531 -6.800781 12.003906 -6.851562 11.578125 -6.875 L 11.578125 -6.890625 L 6.984375 -6.890625 C 6.722656 -6.867188 6.535156 -6.832031 6.421875 -6.78125 L 6.421875 -2.90625 C 6.421875 -2.46875 6.347656 -2.082031 6.203125 -1.75 C 6.054688 -1.414062 5.859375 -1.132812 5.609375 -0.90625 C 5.367188 -0.6875 5.085938 -0.515625 4.765625 -0.390625 C 4.441406 -0.265625 4.101562 -0.203125 3.75 -0.203125 C 3 -0.203125 2.351562 -0.4375 1.8125 -0.90625 C 1.269531 -1.375 1 -2.039062 1 -2.90625 L 1 -11.140625 C 0.988281 -16.804688 3.535156 -19.691406 8.640625 -19.796875 C 8.753906 -19.804688 8.867188 -19.8125 8.984375 -19.8125 L 15.09375 -19.8125 C 16.875 -19.800781 17.757812 -18.890625 17.75 -17.078125 L 17.734375 -2.6875 C 17.734375 -1.832031 17.46875 -1.175781 16.9375 -0.71875 C 16.40625 -0.257812 15.773438 -0.03125 15.046875 -0.03125 C 14.328125 -0.03125 13.695312 -0.257812 13.15625 -0.71875 C 12.625 -1.1875 12.363281 -1.84375 12.375 -2.6875 Z M 12.375 -6.71875 "/></g></g><g style="fill:#ffffff;fill-opacity:1;"><g transform="translate(215.321757, 290.701359)"><path style="stroke:none" d=""/></g></g><g style="fill:#ffffff;fill-opacity:1;"><g transform="translate(222.266101, 290.701359)"><path style="stroke:none" d="M 5.984375 -14.578125 L 6.015625 -4.75 C 6.128906 -4.675781 6.347656 -4.625 6.671875 -4.59375 L 7.765625 -4.59375 L 7.765625 -4.578125 L 12.3125 -4.578125 C 12.738281 -4.578125 13.050781 -4.722656 13.25 -5.015625 C 13.4375 -5.304688 13.457031 -6.648438 13.3125 -9.046875 L 9.75 -14.71875 L 6.40625 -14.71875 C 6.21875 -14.6875 6.078125 -14.640625 5.984375 -14.578125 Z M 18.5 -5.09375 C 18.75 -1.488281 17.125 0.207031 13.625 0 L 3.296875 0 C 1.847656 0 1.125 -0.925781 1.125 -2.78125 L 1.125 -10.015625 L 1.109375 -10.015625 L 1.109375 -16.96875 C 1.109375 -17.320312 1.164062 -17.789062 1.28125 -18.375 C 1.40625 -18.96875 1.796875 -19.335938 2.453125 -19.484375 C 3.109375 -19.640625 3.601562 -19.71875 3.9375 -19.71875 L 10.390625 -19.71875 C 11.296875 -19.769531 12.394531 -19.066406 13.6875 -17.609375 L 17.1875 -12.46875 C 18.144531 -10.9375 18.59375 -9.613281 18.53125 -8.5 Z M 18.5 -5.09375 "/></g></g><g style="fill:#ffffff;fill-opacity:1;"><g transform="translate(241.49975, 290.701359)"><path style="stroke:none" d="M 6.515625 -2.59375 C 6.515625 -1.707031 6.242188 -1.035156 5.703125 -0.578125 C 5.160156 -0.117188 4.523438 0.109375 3.796875 0.109375 C 3.054688 0.109375 2.414062 -0.117188 1.875 -0.578125 C 1.34375 -1.035156 1.078125 -1.707031 1.078125 -2.59375 L 1.078125 -17.109375 C 1.078125 -17.972656 1.34375 -18.632812 1.875 -19.09375 C 2.414062 -19.5625 3.054688 -19.796875 3.796875 -19.796875 C 4.523438 -19.796875 5.160156 -19.5625 5.703125 -19.09375 C 6.242188 -18.632812 6.515625 -17.972656 6.515625 -17.109375 Z M 6.515625 -2.59375 "/></g></g><g style="fill:#ffffff;fill-opacity:1;"><g transform="translate(249.168607, 290.701359)"><path style="stroke:none" d="M 12.03125 -5.28125 L 12.03125 -8.9375 C 12.03125 -9.800781 12.296875 -10.460938 12.828125 -10.921875 C 13.359375 -11.378906 13.988281 -11.609375 14.71875 -11.609375 C 15.445312 -11.609375 16.078125 -11.378906 16.609375 -10.921875 C 17.140625 -10.460938 17.40625 -9.800781 17.40625 -8.9375 L 17.40625 -3.03125 C 17.414062 -2.9375 17.421875 -2.832031 17.421875 -2.71875 C 17.421875 -1.976562 17.203125 -1.335938 16.765625 -0.796875 C 16.328125 -0.265625 15.691406 0 14.859375 0 L 3.375 0 C 1.601562 0 0.71875 -0.90625 0.71875 -2.71875 L 0.703125 -9.71875 L 0.765625 -10.9375 C 0.859375 -11.757812 1.046875 -12.570312 1.328125 -13.375 C 1.742188 -14.570312 2.382812 -15.640625 3.25 -16.578125 C 4.113281 -17.515625 5.175781 -18.269531 6.4375 -18.84375 C 7.707031 -19.425781 9.203125 -19.71875 10.921875 -19.71875 L 14.125 -19.71875 C 14.582031 -19.71875 14.976562 -19.632812 15.3125 -19.46875 C 15.65625 -19.3125 15.945312 -19.101562 16.1875 -18.84375 C 16.425781 -18.582031 16.601562 -18.285156 16.71875 -17.953125 C 16.84375 -17.628906 16.90625 -17.289062 16.90625 -16.9375 C 16.90625 -16.582031 16.84375 -16.234375 16.71875 -15.890625 C 16.601562 -15.554688 16.425781 -15.265625 16.1875 -15.015625 C 15.945312 -14.765625 15.65625 -14.5625 15.3125 -14.40625 C 14.976562 -14.25 14.582031 -14.171875 14.125 -14.171875 L 10.5 -14.171875 C 9.738281 -14.171875 9.078125 -14.046875 8.515625 -13.796875 C 7.953125 -13.554688 7.46875 -13.179688 7.0625 -12.671875 C 6.664062 -12.160156 6.421875 -11.359375 6.328125 -10.265625 C 6.234375 -9.191406 6.210938 -7.582031 6.265625 -5.4375 C 6.367188 -5.351562 6.597656 -5.300781 6.953125 -5.28125 Z M 12.03125 -5.28125 "/></g></g><g style="fill:#ffffff;fill-opacity:1;"><g transform="translate(266.994243, 290.701359)"><path style="stroke:none" d="M 6.515625 -2.59375 C 6.515625 -1.707031 6.242188 -1.035156 5.703125 -0.578125 C 5.160156 -0.117188 4.523438 0.109375 3.796875 0.109375 C 3.054688 0.109375 2.414062 -0.117188 1.875 -0.578125 C 1.34375 -1.035156 1.078125 -1.707031 1.078125 -2.59375 L 1.078125 -17.109375 C 1.078125 -17.972656 1.34375 -18.632812 1.875 -19.09375 C 2.414062 -19.5625 3.054688 -19.796875 3.796875 -19.796875 C 4.523438 -19.796875 5.160156 -19.5625 5.703125 -19.09375 C 6.242188 -18.632812 6.515625 -17.972656 6.515625 -17.109375 Z M 6.515625 -2.59375 "/></g></g><g style="fill:#ffffff;fill-opacity:1;"><g transform="translate(274.663089, 290.701359)"><path style="stroke:none" d="M 11.859375 -2.59375 C 11.859375 -1.707031 11.585938 -1.035156 11.046875 -0.578125 C 10.503906 -0.117188 9.863281 0.109375 9.125 0.109375 C 8.394531 0.109375 7.757812 -0.117188 7.21875 -0.578125 C 6.6875 -1.035156 6.421875 -1.707031 6.421875 -2.59375 L 6.421875 -14.21875 L 3.15625 -14.21875 C 2.289062 -14.21875 1.617188 -14.488281 1.140625 -15.03125 C 0.671875 -15.570312 0.4375 -16.21875 0.4375 -16.96875 C 0.4375 -17.71875 0.671875 -18.363281 1.140625 -18.90625 C 1.617188 -19.445312 2.289062 -19.71875 3.15625 -19.71875 L 15.0625 -19.71875 C 15.925781 -19.71875 16.597656 -19.445312 17.078125 -18.90625 C 17.566406 -18.363281 17.8125 -17.71875 17.8125 -16.96875 C 17.8125 -16.21875 17.566406 -15.570312 17.078125 -15.03125 C 16.597656 -14.488281 15.925781 -14.21875 15.0625 -14.21875 L 11.859375 -14.21875 Z M 11.859375 -2.59375 "/></g></g><g style="fill:#ffffff;fill-opacity:1;"><g transform="translate(293.07654, 290.701359)"><path style="stroke:none" d="M 12.390625 -12.078125 L 12.390625 -14.671875 L 8.96875 -14.671875 C 7.269531 -14.671875 6.421875 -13.863281 6.421875 -12.25 L 6.421875 -12.0625 C 6.523438 -11.957031 6.765625 -11.894531 7.140625 -11.875 L 11.765625 -11.875 C 12.109375 -11.90625 12.316406 -11.972656 12.390625 -12.078125 Z M 12.375 -6.71875 C 12.269531 -6.800781 12.003906 -6.851562 11.578125 -6.875 L 11.578125 -6.890625 L 6.984375 -6.890625 C 6.722656 -6.867188 6.535156 -6.832031 6.421875 -6.78125 L 6.421875 -2.90625 C 6.421875 -2.46875 6.347656 -2.082031 6.203125 -1.75 C 6.054688 -1.414062 5.859375 -1.132812 5.609375 -0.90625 C 5.367188 -0.6875 5.085938 -0.515625 4.765625 -0.390625 C 4.441406 -0.265625 4.101562 -0.203125 3.75 -0.203125 C 3 -0.203125 2.351562 -0.4375 1.8125 -0.90625 C 1.269531 -1.375 1 -2.039062 1 -2.90625 L 1 -11.140625 C 0.988281 -16.804688 3.535156 -19.691406 8.640625 -19.796875 C 8.753906 -19.804688 8.867188 -19.8125 8.984375 -19.8125 L 15.09375 -19.8125 C 16.875 -19.800781 17.757812 -18.890625 17.75 -17.078125 L 17.734375 -2.6875 C 17.734375 -1.832031 17.46875 -1.175781 16.9375 -0.71875 C 16.40625 -0.257812 15.773438 -0.03125 15.046875 -0.03125 C 14.328125 -0.03125 13.695312 -0.257812 13.15625 -0.71875 C 12.625 -1.1875 12.363281 -1.84375 12.375 -2.6875 Z M 12.375 -6.71875 "/></g></g><g style="fill:#ffffff;fill-opacity:1;"><g transform="translate(311.736062, 290.701359)"><path style="stroke:none" d="M 13.5 -5.453125 C 14.332031 -5.453125 14.96875 -5.1875 15.40625 -4.65625 C 15.851562 -4.132812 16.078125 -3.5 16.078125 -2.75 C 16.078125 -2 15.851562 -1.351562 15.40625 -0.8125 C 14.96875 -0.269531 14.332031 0 13.5 0 L 3.796875 0 C 2.003906 0 1.109375 -0.914062 1.109375 -2.75 L 1.109375 -17.109375 C 1.109375 -17.972656 1.375 -18.632812 1.90625 -19.09375 C 2.4375 -19.5625 3.066406 -19.796875 3.796875 -19.796875 C 4.515625 -19.796875 5.144531 -19.5625 5.6875 -19.09375 C 6.238281 -18.632812 6.515625 -17.972656 6.515625 -17.109375 L 6.515625 -6.03125 C 6.554688 -5.625 6.78125 -5.429688 7.1875 -5.453125 Z M 13.5 -5.453125 "/></g></g><g style="fill:#ffffff;fill-opacity:1;"><g transform="translate(61.543525, 330.499987)"><path style="stroke:none" d="M 8.0625 -12.90625 C 6.53125 -12.90625 5.320312 -12.390625 4.4375 -11.359375 C 3.5625 -10.328125 3.125 -8.921875 3.125 -7.140625 C 3.125 -5.367188 3.53125 -3.960938 4.34375 -2.921875 C 5.164062 -1.890625 6.398438 -1.375 8.046875 -1.375 C 8.648438 -1.375 9.234375 -1.425781 9.796875 -1.53125 C 10.359375 -1.644531 10.910156 -1.78125 11.453125 -1.9375 L 11.453125 -0.375 C 10.921875 -0.175781 10.367188 -0.03125 9.796875 0.0625 C 9.234375 0.15625 8.5625 0.203125 7.78125 0.203125 C 6.320312 0.203125 5.109375 -0.09375 4.140625 -0.6875 C 3.171875 -1.289062 2.441406 -2.144531 1.953125 -3.25 C 1.460938 -4.363281 1.21875 -5.664062 1.21875 -7.15625 C 1.21875 -8.59375 1.476562 -9.863281 2 -10.96875 C 2.53125 -12.070312 3.304688 -12.929688 4.328125 -13.546875 C 5.359375 -14.171875 6.609375 -14.484375 8.078125 -14.484375 C 9.585938 -14.484375 10.898438 -14.203125 12.015625 -13.640625 L 11.296875 -12.125 C 10.859375 -12.320312 10.367188 -12.5 9.828125 -12.65625 C 9.285156 -12.820312 8.695312 -12.90625 8.0625 -12.90625 Z M 8.0625 -12.90625 "/></g></g><g style="fill:#ffffff;fill-opacity:1;"><g transform="translate(74.178545, 330.499987)"><path style="stroke:none" d="M 5.765625 -10.90625 C 7.066406 -10.90625 8.03125 -10.617188 8.65625 -10.046875 C 9.28125 -9.472656 9.59375 -8.554688 9.59375 -7.296875 L 9.59375 0 L 8.3125 0 L 7.984375 -1.515625 L 7.90625 -1.515625 C 7.4375 -0.929688 6.941406 -0.5 6.421875 -0.21875 C 5.898438 0.0625 5.191406 0.203125 4.296875 0.203125 C 3.328125 0.203125 2.519531 -0.0507812 1.875 -0.5625 C 1.238281 -1.082031 0.921875 -1.890625 0.921875 -2.984375 C 0.921875 -4.046875 1.335938 -4.863281 2.171875 -5.4375 C 3.015625 -6.019531 4.3125 -6.34375 6.0625 -6.40625 L 7.875 -6.453125 L 7.875 -7.09375 C 7.875 -7.988281 7.679688 -8.609375 7.296875 -8.953125 C 6.910156 -9.304688 6.363281 -9.484375 5.65625 -9.484375 C 5.09375 -9.484375 4.554688 -9.398438 4.046875 -9.234375 C 3.546875 -9.066406 3.078125 -8.875 2.640625 -8.65625 L 2.09375 -9.984375 C 2.5625 -10.234375 3.113281 -10.445312 3.75 -10.625 C 4.394531 -10.8125 5.066406 -10.90625 5.765625 -10.90625 Z M 7.859375 -5.234375 L 6.28125 -5.1875 C 4.945312 -5.125 4.019531 -4.90625 3.5 -4.53125 C 2.988281 -4.164062 2.734375 -3.640625 2.734375 -2.953125 C 2.734375 -2.359375 2.914062 -1.921875 3.28125 -1.640625 C 3.65625 -1.359375 4.128906 -1.21875 4.703125 -1.21875 C 5.597656 -1.21875 6.347656 -1.46875 6.953125 -1.96875 C 7.554688 -2.46875 7.859375 -3.238281 7.859375 -4.28125 Z M 7.859375 -5.234375 "/></g></g><g style="fill:#ffffff;fill-opacity:1;"><g transform="translate(85.39412, 330.499987)"><path style="stroke:none" d="M 6.703125 -10.921875 C 6.898438 -10.921875 7.113281 -10.910156 7.34375 -10.890625 C 7.570312 -10.867188 7.773438 -10.835938 7.953125 -10.796875 L 7.734375 -9.1875 C 7.566406 -9.21875 7.375 -9.242188 7.15625 -9.265625 C 6.945312 -9.296875 6.753906 -9.3125 6.578125 -9.3125 C 6.035156 -9.3125 5.519531 -9.160156 5.03125 -8.859375 C 4.550781 -8.566406 4.164062 -8.148438 3.875 -7.609375 C 3.59375 -7.066406 3.453125 -6.4375 3.453125 -5.71875 L 3.453125 0 L 1.703125 0 L 1.703125 -10.71875 L 3.140625 -10.71875 L 3.34375 -8.765625 L 3.421875 -8.765625 C 3.753906 -9.347656 4.195312 -9.851562 4.75 -10.28125 C 5.300781 -10.707031 5.953125 -10.921875 6.703125 -10.921875 Z M 6.703125 -10.921875 "/></g></g><g style="fill:#ffffff;fill-opacity:1;"><g transform="translate(93.65086, 330.499987)"><path style="stroke:none" d="M 2.59375 -14.734375 C 2.863281 -14.734375 3.101562 -14.644531 3.3125 -14.46875 C 3.519531 -14.289062 3.625 -14.007812 3.625 -13.625 C 3.625 -13.238281 3.519531 -12.953125 3.3125 -12.765625 C 3.101562 -12.585938 2.863281 -12.5 2.59375 -12.5 C 2.300781 -12.5 2.054688 -12.585938 1.859375 -12.765625 C 1.660156 -12.953125 1.5625 -13.238281 1.5625 -13.625 C 1.5625 -14.007812 1.660156 -14.289062 1.859375 -14.46875 C 2.054688 -14.644531 2.300781 -14.734375 2.59375 -14.734375 Z M 3.453125 -10.71875 L 3.453125 0 L 1.703125 0 L 1.703125 -10.71875 Z M 3.453125 -10.71875 "/></g></g><g style="fill:#ffffff;fill-opacity:1;"><g transform="translate(98.808827, 330.499987)"><path style="stroke:none" d="M 6.859375 -10.921875 C 8.140625 -10.921875 9.101562 -10.609375 9.75 -9.984375 C 10.40625 -9.359375 10.734375 -8.359375 10.734375 -6.984375 L 10.734375 0 L 9 0 L 9 -6.859375 C 9 -8.578125 8.195312 -9.4375 6.59375 -9.4375 C 5.40625 -9.4375 4.582031 -9.101562 4.125 -8.4375 C 3.675781 -7.769531 3.453125 -6.8125 3.453125 -5.5625 L 3.453125 0 L 1.703125 0 L 1.703125 -10.71875 L 3.125 -10.71875 L 3.375 -9.265625 L 3.484375 -9.265625 C 3.828125 -9.816406 4.304688 -10.226562 4.921875 -10.5 C 5.535156 -10.78125 6.179688 -10.921875 6.859375 -10.921875 Z M 6.859375 -10.921875 "/></g></g><g style="fill:#ffffff;fill-opacity:1;"><g transform="translate(111.163948, 330.499987)"><path style="stroke:none" d="M 3.453125 -15.203125 L 3.453125 -10.734375 C 3.453125 -10.203125 3.421875 -9.703125 3.359375 -9.234375 L 3.484375 -9.234375 C 3.828125 -9.785156 4.296875 -10.203125 4.890625 -10.484375 C 5.484375 -10.765625 6.125 -10.90625 6.8125 -10.90625 C 8.113281 -10.90625 9.09375 -10.59375 9.75 -9.96875 C 10.40625 -9.351562 10.734375 -8.359375 10.734375 -6.984375 L 10.734375 0 L 9 0 L 9 -6.859375 C 9 -8.578125 8.195312 -9.4375 6.59375 -9.4375 C 5.394531 -9.4375 4.570312 -9.097656 4.125 -8.421875 C 3.675781 -7.753906 3.453125 -6.796875 3.453125 -5.546875 L 3.453125 0 L 1.703125 0 L 1.703125 -15.203125 Z M 3.453125 -15.203125 "/></g></g><g style="fill:#ffffff;fill-opacity:1;"><g transform="translate(123.519068, 330.499987)"><path style="stroke:none" d="M 11.015625 -5.375 C 11.015625 -3.601562 10.5625 -2.226562 9.65625 -1.25 C 8.757812 -0.28125 7.546875 0.203125 6.015625 0.203125 C 5.066406 0.203125 4.222656 -0.0078125 3.484375 -0.4375 C 2.742188 -0.875 2.160156 -1.507812 1.734375 -2.34375 C 1.304688 -3.175781 1.09375 -4.1875 1.09375 -5.375 C 1.09375 -7.15625 1.535156 -8.523438 2.421875 -9.484375 C 3.316406 -10.441406 4.535156 -10.921875 6.078125 -10.921875 C 7.035156 -10.921875 7.890625 -10.703125 8.640625 -10.265625 C 9.390625 -9.835938 9.972656 -9.210938 10.390625 -8.390625 C 10.804688 -7.566406 11.015625 -6.5625 11.015625 -5.375 Z M 2.921875 -5.375 C 2.921875 -4.113281 3.171875 -3.113281 3.671875 -2.375 C 4.171875 -1.632812 4.96875 -1.265625 6.0625 -1.265625 C 7.144531 -1.265625 7.9375 -1.632812 8.4375 -2.375 C 8.945312 -3.113281 9.203125 -4.113281 9.203125 -5.375 C 9.203125 -6.644531 8.945312 -7.640625 8.4375 -8.359375 C 7.9375 -9.078125 7.140625 -9.4375 6.046875 -9.4375 C 4.953125 -9.4375 4.15625 -9.078125 3.65625 -8.359375 C 3.164062 -7.640625 2.921875 -6.644531 2.921875 -5.375 Z M 2.921875 -5.375 "/></g></g><g style="fill:#ffffff;fill-opacity:1;"><g transform="translate(135.614294, 330.499987)"><path style="stroke:none" d=""/></g></g><g style="fill:#ffffff;fill-opacity:1;"><g transform="translate(138.813031, 330.499987)"><path style="stroke:none" d="M 5.84375 -10.921875 C 6.75 -10.921875 7.535156 -10.71875 8.203125 -10.3125 C 8.867188 -9.914062 9.378906 -9.351562 9.734375 -8.625 C 10.085938 -7.90625 10.265625 -7.054688 10.265625 -6.078125 L 10.265625 -5.015625 L 2.921875 -5.015625 C 2.941406 -3.804688 3.25 -2.882812 3.84375 -2.25 C 4.4375 -1.613281 5.269531 -1.296875 6.34375 -1.296875 C 7.019531 -1.296875 7.617188 -1.359375 8.140625 -1.484375 C 8.671875 -1.617188 9.21875 -1.804688 9.78125 -2.046875 L 9.78125 -0.5 C 9.226562 -0.257812 8.6875 -0.0820312 8.15625 0.03125 C 7.625 0.144531 6.992188 0.203125 6.265625 0.203125 C 5.234375 0.203125 4.332031 -0.00390625 3.5625 -0.421875 C 2.789062 -0.835938 2.1875 -1.453125 1.75 -2.265625 C 1.3125 -3.078125 1.09375 -4.082031 1.09375 -5.28125 C 1.09375 -6.457031 1.289062 -7.460938 1.6875 -8.296875 C 2.082031 -9.140625 2.632812 -9.785156 3.34375 -10.234375 C 4.0625 -10.691406 4.894531 -10.921875 5.84375 -10.921875 Z M 5.8125 -9.484375 C 4.976562 -9.484375 4.316406 -9.210938 3.828125 -8.671875 C 3.335938 -8.128906 3.046875 -7.378906 2.953125 -6.421875 L 8.421875 -6.421875 C 8.410156 -7.328125 8.195312 -8.0625 7.78125 -8.625 C 7.363281 -9.195312 6.707031 -9.484375 5.8125 -9.484375 Z M 5.8125 -9.484375 "/></g></g><g style="fill:#ffffff;fill-opacity:1;"><g transform="translate(150.088585, 330.499987)"><path style="stroke:none" d="M 13.453125 -10.921875 C 14.671875 -10.921875 15.578125 -10.609375 16.171875 -9.984375 C 16.773438 -9.359375 17.078125 -8.359375 17.078125 -6.984375 L 17.078125 0 L 15.34375 0 L 15.34375 -6.90625 C 15.34375 -8.59375 14.613281 -9.4375 13.15625 -9.4375 C 12.113281 -9.4375 11.367188 -9.132812 10.921875 -8.53125 C 10.484375 -7.9375 10.265625 -7.066406 10.265625 -5.921875 L 10.265625 0 L 8.515625 0 L 8.515625 -6.90625 C 8.515625 -8.59375 7.78125 -9.4375 6.3125 -9.4375 C 5.238281 -9.4375 4.492188 -9.101562 4.078125 -8.4375 C 3.660156 -7.769531 3.453125 -6.8125 3.453125 -5.5625 L 3.453125 0 L 1.703125 0 L 1.703125 -10.71875 L 3.125 -10.71875 L 3.375 -9.265625 L 3.484375 -9.265625 C 3.816406 -9.816406 4.265625 -10.226562 4.828125 -10.5 C 5.398438 -10.78125 6.003906 -10.921875 6.640625 -10.921875 C 8.316406 -10.921875 9.410156 -10.320312 9.921875 -9.125 L 10.015625 -9.125 C 10.378906 -9.738281 10.867188 -10.191406 11.484375 -10.484375 C 12.097656 -10.773438 12.753906 -10.921875 13.453125 -10.921875 Z M 13.453125 -10.921875 "/></g></g><g style="fill:#ffffff;fill-opacity:1;"><g transform="translate(168.781215, 330.499987)"><path style="stroke:none" d=""/></g></g><g style="fill:#ffffff;fill-opacity:1;"><g transform="translate(171.979953, 330.499987)"><path style="stroke:none" d="M 6.640625 -9.359375 L 3.9375 -9.359375 L 3.9375 0 L 2.1875 0 L 2.1875 -9.359375 L 0.296875 -9.359375 L 0.296875 -10.1875 L 2.1875 -10.78125 L 2.1875 -11.40625 C 2.1875 -12.789062 2.488281 -13.785156 3.09375 -14.390625 C 3.695312 -14.992188 4.550781 -15.296875 5.65625 -15.296875 C 6.070312 -15.296875 6.457031 -15.257812 6.8125 -15.1875 C 7.175781 -15.113281 7.484375 -15.03125 7.734375 -14.9375 L 7.28125 -13.5625 C 7.0625 -13.625 6.8125 -13.6875 6.53125 -13.75 C 6.257812 -13.820312 5.976562 -13.859375 5.6875 -13.859375 C 5.09375 -13.859375 4.648438 -13.660156 4.359375 -13.265625 C 4.078125 -12.878906 3.9375 -12.265625 3.9375 -11.421875 L 3.9375 -10.71875 L 6.640625 -10.71875 Z M 6.640625 -9.359375 "/></g></g><g style="fill:#ffffff;fill-opacity:1;"><g transform="translate(178.857245, 330.499987)"><path style="stroke:none" d="M 11.015625 -5.375 C 11.015625 -3.601562 10.5625 -2.226562 9.65625 -1.25 C 8.757812 -0.28125 7.546875 0.203125 6.015625 0.203125 C 5.066406 0.203125 4.222656 -0.0078125 3.484375 -0.4375 C 2.742188 -0.875 2.160156 -1.507812 1.734375 -2.34375 C 1.304688 -3.175781 1.09375 -4.1875 1.09375 -5.375 C 1.09375 -7.15625 1.535156 -8.523438 2.421875 -9.484375 C 3.316406 -10.441406 4.535156 -10.921875 6.078125 -10.921875 C 7.035156 -10.921875 7.890625 -10.703125 8.640625 -10.265625 C 9.390625 -9.835938 9.972656 -9.210938 10.390625 -8.390625 C 10.804688 -7.566406 11.015625 -6.5625 11.015625 -5.375 Z M 2.921875 -5.375 C 2.921875 -4.113281 3.171875 -3.113281 3.671875 -2.375 C 4.171875 -1.632812 4.96875 -1.265625 6.0625 -1.265625 C 7.144531 -1.265625 7.9375 -1.632812 8.4375 -2.375 C 8.945312 -3.113281 9.203125 -4.113281 9.203125 -5.375 C 9.203125 -6.644531 8.945312 -7.640625 8.4375 -8.359375 C 7.9375 -9.078125 7.140625 -9.4375 6.046875 -9.4375 C 4.953125 -9.4375 4.15625 -9.078125 3.65625 -8.359375 C 3.164062 -7.640625 2.921875 -6.644531 2.921875 -5.375 Z M 2.921875 -5.375 "/></g></g><g style="fill:#ffffff;fill-opacity:1;"><g transform="translate(190.952471, 330.499987)"><path style="stroke:none" d="M 6.703125 -10.921875 C 6.898438 -10.921875 7.113281 -10.910156 7.34375 -10.890625 C 7.570312 -10.867188 7.773438 -10.835938 7.953125 -10.796875 L 7.734375 -9.1875 C 7.566406 -9.21875 7.375 -9.242188 7.15625 -9.265625 C 6.945312 -9.296875 6.753906 -9.3125 6.578125 -9.3125 C 6.035156 -9.3125 5.519531 -9.160156 5.03125 -8.859375 C 4.550781 -8.566406 4.164062 -8.148438 3.875 -7.609375 C 3.59375 -7.066406 3.453125 -6.4375 3.453125 -5.71875 L 3.453125 0 L 1.703125 0 L 1.703125 -10.71875 L 3.140625 -10.71875 L 3.34375 -8.765625 L 3.421875 -8.765625 C 3.753906 -9.347656 4.195312 -9.851562 4.75 -10.28125 C 5.300781 -10.707031 5.953125 -10.921875 6.703125 -10.921875 Z M 6.703125 -10.921875 "/></g></g><g style="fill:#ffffff;fill-opacity:1;"><g transform="translate(199.209211, 330.499987)"><path style="stroke:none" d="M 13.453125 -10.921875 C 14.671875 -10.921875 15.578125 -10.609375 16.171875 -9.984375 C 16.773438 -9.359375 17.078125 -8.359375 17.078125 -6.984375 L 17.078125 0 L 15.34375 0 L 15.34375 -6.90625 C 15.34375 -8.59375 14.613281 -9.4375 13.15625 -9.4375 C 12.113281 -9.4375 11.367188 -9.132812 10.921875 -8.53125 C 10.484375 -7.9375 10.265625 -7.066406 10.265625 -5.921875 L 10.265625 0 L 8.515625 0 L 8.515625 -6.90625 C 8.515625 -8.59375 7.78125 -9.4375 6.3125 -9.4375 C 5.238281 -9.4375 4.492188 -9.101562 4.078125 -8.4375 C 3.660156 -7.769531 3.453125 -6.8125 3.453125 -5.5625 L 3.453125 0 L 1.703125 0 L 1.703125 -10.71875 L 3.125 -10.71875 L 3.375 -9.265625 L 3.484375 -9.265625 C 3.816406 -9.816406 4.265625 -10.226562 4.828125 -10.5 C 5.398438 -10.78125 6.003906 -10.921875 6.640625 -10.921875 C 8.316406 -10.921875 9.410156 -10.320312 9.921875 -9.125 L 10.015625 -9.125 C 10.378906 -9.738281 10.867188 -10.191406 11.484375 -10.484375 C 12.097656 -10.773438 12.753906 -10.921875 13.453125 -10.921875 Z M 13.453125 -10.921875 "/></g></g><g style="fill:#ffffff;fill-opacity:1;"><g transform="translate(217.901841, 330.499987)"><path style="stroke:none" d="M 5.765625 -10.90625 C 7.066406 -10.90625 8.03125 -10.617188 8.65625 -10.046875 C 9.28125 -9.472656 9.59375 -8.554688 9.59375 -7.296875 L 9.59375 0 L 8.3125 0 L 7.984375 -1.515625 L 7.90625 -1.515625 C 7.4375 -0.929688 6.941406 -0.5 6.421875 -0.21875 C 5.898438 0.0625 5.191406 0.203125 4.296875 0.203125 C 3.328125 0.203125 2.519531 -0.0507812 1.875 -0.5625 C 1.238281 -1.082031 0.921875 -1.890625 0.921875 -2.984375 C 0.921875 -4.046875 1.335938 -4.863281 2.171875 -5.4375 C 3.015625 -6.019531 4.3125 -6.34375 6.0625 -6.40625 L 7.875 -6.453125 L 7.875 -7.09375 C 7.875 -7.988281 7.679688 -8.609375 7.296875 -8.953125 C 6.910156 -9.304688 6.363281 -9.484375 5.65625 -9.484375 C 5.09375 -9.484375 4.554688 -9.398438 4.046875 -9.234375 C 3.546875 -9.066406 3.078125 -8.875 2.640625 -8.65625 L 2.09375 -9.984375 C 2.5625 -10.234375 3.113281 -10.445312 3.75 -10.625 C 4.394531 -10.8125 5.066406 -10.90625 5.765625 -10.90625 Z M 7.859375 -5.234375 L 6.28125 -5.1875 C 4.945312 -5.125 4.019531 -4.90625 3.5 -4.53125 C 2.988281 -4.164062 2.734375 -3.640625 2.734375 -2.953125 C 2.734375 -2.359375 2.914062 -1.921875 3.28125 -1.640625 C 3.65625 -1.359375 4.128906 -1.21875 4.703125 -1.21875 C 5.597656 -1.21875 6.347656 -1.46875 6.953125 -1.96875 C 7.554688 -2.46875 7.859375 -3.238281 7.859375 -4.28125 Z M 7.859375 -5.234375 "/></g></g><g style="fill:#ffffff;fill-opacity:1;"><g transform="translate(229.117416, 330.499987)"><path style="stroke:none" d=""/></g></g><g style="fill:#ffffff;fill-opacity:1;"><g transform="translate(232.316151, 330.499987)"><path style="stroke:none" d="M 5.5 0.203125 C 4.164062 0.203125 3.097656 -0.257812 2.296875 -1.1875 C 1.492188 -2.113281 1.09375 -3.5 1.09375 -5.34375 C 1.09375 -7.175781 1.492188 -8.5625 2.296875 -9.5 C 3.109375 -10.445312 4.179688 -10.921875 5.515625 -10.921875 C 6.347656 -10.921875 7.023438 -10.765625 7.546875 -10.453125 C 8.078125 -10.148438 8.507812 -9.78125 8.84375 -9.34375 L 8.953125 -9.34375 C 8.929688 -9.507812 8.90625 -9.765625 8.875 -10.109375 C 8.851562 -10.453125 8.84375 -10.722656 8.84375 -10.921875 L 8.84375 -15.203125 L 10.59375 -15.203125 L 10.59375 0 L 9.1875 0 L 8.921875 -1.4375 L 8.84375 -1.4375 C 8.519531 -0.988281 8.09375 -0.601562 7.5625 -0.28125 C 7.03125 0.0390625 6.34375 0.203125 5.5 0.203125 Z M 5.78125 -1.265625 C 6.914062 -1.265625 7.710938 -1.570312 8.171875 -2.1875 C 8.628906 -2.8125 8.859375 -3.75 8.859375 -5 L 8.859375 -5.3125 C 8.859375 -6.644531 8.640625 -7.664062 8.203125 -8.375 C 7.765625 -9.09375 6.953125 -9.453125 5.765625 -9.453125 C 4.816406 -9.453125 4.101562 -9.078125 3.625 -8.328125 C 3.15625 -7.578125 2.921875 -6.566406 2.921875 -5.296875 C 2.921875 -4.015625 3.15625 -3.019531 3.625 -2.3125 C 4.101562 -1.613281 4.820312 -1.265625 5.78125 -1.265625 Z M 5.78125 -1.265625 "/></g></g><g style="fill:#ffffff;fill-opacity:1;"><g transform="translate(244.611305, 330.499987)"><path style="stroke:none" d="M 5.84375 -10.921875 C 6.75 -10.921875 7.535156 -10.71875 8.203125 -10.3125 C 8.867188 -9.914062 9.378906 -9.351562 9.734375 -8.625 C 10.085938 -7.90625 10.265625 -7.054688 10.265625 -6.078125 L 10.265625 -5.015625 L 2.921875 -5.015625 C 2.941406 -3.804688 3.25 -2.882812 3.84375 -2.25 C 4.4375 -1.613281 5.269531 -1.296875 6.34375 -1.296875 C 7.019531 -1.296875 7.617188 -1.359375 8.140625 -1.484375 C 8.671875 -1.617188 9.21875 -1.804688 9.78125 -2.046875 L 9.78125 -0.5 C 9.226562 -0.257812 8.6875 -0.0820312 8.15625 0.03125 C 7.625 0.144531 6.992188 0.203125 6.265625 0.203125 C 5.234375 0.203125 4.332031 -0.00390625 3.5625 -0.421875 C 2.789062 -0.835938 2.1875 -1.453125 1.75 -2.265625 C 1.3125 -3.078125 1.09375 -4.082031 1.09375 -5.28125 C 1.09375 -6.457031 1.289062 -7.460938 1.6875 -8.296875 C 2.082031 -9.140625 2.632812 -9.785156 3.34375 -10.234375 C 4.0625 -10.691406 4.894531 -10.921875 5.84375 -10.921875 Z M 5.8125 -9.484375 C 4.976562 -9.484375 4.316406 -9.210938 3.828125 -8.671875 C 3.335938 -8.128906 3.046875 -7.378906 2.953125 -6.421875 L 8.421875 -6.421875 C 8.410156 -7.328125 8.195312 -8.0625 7.78125 -8.625 C 7.363281 -9.195312 6.707031 -9.484375 5.8125 -9.484375 Z M 5.8125 -9.484375 "/></g></g><g style="fill:#ffffff;fill-opacity:1;"><g transform="translate(255.886849, 330.499987)"><path style="stroke:none" d=""/></g></g><g style="fill:#ffffff;fill-opacity:1;"><g transform="translate(259.085584, 330.499987)"><path style="stroke:none" d="M 6 0.203125 C 5.039062 0.203125 4.191406 0.0078125 3.453125 -0.375 C 2.722656 -0.757812 2.144531 -1.359375 1.71875 -2.171875 C 1.300781 -2.992188 1.09375 -4.035156 1.09375 -5.296875 C 1.09375 -6.617188 1.3125 -7.691406 1.75 -8.515625 C 2.1875 -9.347656 2.785156 -9.957031 3.546875 -10.34375 C 4.304688 -10.726562 5.164062 -10.921875 6.125 -10.921875 C 6.65625 -10.921875 7.175781 -10.863281 7.6875 -10.75 C 8.195312 -10.632812 8.613281 -10.5 8.9375 -10.34375 L 8.40625 -8.875 C 8.082031 -9 7.707031 -9.113281 7.28125 -9.21875 C 6.851562 -9.320312 6.453125 -9.375 6.078125 -9.375 C 3.972656 -9.375 2.921875 -8.019531 2.921875 -5.3125 C 2.921875 -4.019531 3.175781 -3.03125 3.6875 -2.34375 C 4.195312 -1.65625 4.960938 -1.3125 5.984375 -1.3125 C 6.554688 -1.3125 7.066406 -1.375 7.515625 -1.5 C 7.972656 -1.625 8.390625 -1.769531 8.765625 -1.9375 L 8.765625 -0.375 C 8.398438 -0.1875 8 -0.046875 7.5625 0.046875 C 7.132812 0.148438 6.613281 0.203125 6 0.203125 Z M 6 0.203125 "/></g></g><g style="fill:#ffffff;fill-opacity:1;"><g transform="translate(268.681798, 330.499987)"><path style="stroke:none" d="M 5.765625 -10.90625 C 7.066406 -10.90625 8.03125 -10.617188 8.65625 -10.046875 C 9.28125 -9.472656 9.59375 -8.554688 9.59375 -7.296875 L 9.59375 0 L 8.3125 0 L 7.984375 -1.515625 L 7.90625 -1.515625 C 7.4375 -0.929688 6.941406 -0.5 6.421875 -0.21875 C 5.898438 0.0625 5.191406 0.203125 4.296875 0.203125 C 3.328125 0.203125 2.519531 -0.0507812 1.875 -0.5625 C 1.238281 -1.082031 0.921875 -1.890625 0.921875 -2.984375 C 0.921875 -4.046875 1.335938 -4.863281 2.171875 -5.4375 C 3.015625 -6.019531 4.3125 -6.34375 6.0625 -6.40625 L 7.875 -6.453125 L 7.875 -7.09375 C 7.875 -7.988281 7.679688 -8.609375 7.296875 -8.953125 C 6.910156 -9.304688 6.363281 -9.484375 5.65625 -9.484375 C 5.09375 -9.484375 4.554688 -9.398438 4.046875 -9.234375 C 3.546875 -9.066406 3.078125 -8.875 2.640625 -8.65625 L 2.09375 -9.984375 C 2.5625 -10.234375 3.113281 -10.445312 3.75 -10.625 C 4.394531 -10.8125 5.066406 -10.90625 5.765625 -10.90625 Z M 7.859375 -5.234375 L 6.28125 -5.1875 C 4.945312 -5.125 4.019531 -4.90625 3.5 -4.53125 C 2.988281 -4.164062 2.734375 -3.640625 2.734375 -2.953125 C 2.734375 -2.359375 2.914062 -1.921875 3.28125 -1.640625 C 3.65625 -1.359375 4.128906 -1.21875 4.703125 -1.21875 C 5.597656 -1.21875 6.347656 -1.46875 6.953125 -1.96875 C 7.554688 -2.46875 7.859375 -3.238281 7.859375 -4.28125 Z M 7.859375 -5.234375 "/></g></g><g style="fill:#ffffff;fill-opacity:1;"><g transform="translate(279.897373, 330.499987)"><path style="stroke:none" d="M 6.859375 -10.921875 C 8.140625 -10.921875 9.101562 -10.609375 9.75 -9.984375 C 10.40625 -9.359375 10.734375 -8.359375 10.734375 -6.984375 L 10.734375 0 L 9 0 L 9 -6.859375 C 9 -8.578125 8.195312 -9.4375 6.59375 -9.4375 C 5.40625 -9.4375 4.582031 -9.101562 4.125 -8.4375 C 3.675781 -7.769531 3.453125 -6.8125 3.453125 -5.5625 L 3.453125 0 L 1.703125 0 L 1.703125 -10.71875 L 3.125 -10.71875 L 3.375 -9.265625 L 3.484375 -9.265625 C 3.828125 -9.816406 4.304688 -10.226562 4.921875 -10.5 C 5.535156 -10.78125 6.179688 -10.921875 6.859375 -10.921875 Z M 6.859375 -10.921875 "/></g></g><g style="fill:#ffffff;fill-opacity:1;"><g transform="translate(292.252505, 330.499987)"><path style="stroke:none" d="M 5.84375 -10.921875 C 6.75 -10.921875 7.535156 -10.71875 8.203125 -10.3125 C 8.867188 -9.914062 9.378906 -9.351562 9.734375 -8.625 C 10.085938 -7.90625 10.265625 -7.054688 10.265625 -6.078125 L 10.265625 -5.015625 L 2.921875 -5.015625 C 2.941406 -3.804688 3.25 -2.882812 3.84375 -2.25 C 4.4375 -1.613281 5.269531 -1.296875 6.34375 -1.296875 C 7.019531 -1.296875 7.617188 -1.359375 8.140625 -1.484375 C 8.671875 -1.617188 9.21875 -1.804688 9.78125 -2.046875 L 9.78125 -0.5 C 9.226562 -0.257812 8.6875 -0.0820312 8.15625 0.03125 C 7.625 0.144531 6.992188 0.203125 6.265625 0.203125 C 5.234375 0.203125 4.332031 -0.00390625 3.5625 -0.421875 C 2.789062 -0.835938 2.1875 -1.453125 1.75 -2.265625 C 1.3125 -3.078125 1.09375 -4.082031 1.09375 -5.28125 C 1.09375 -6.457031 1.289062 -7.460938 1.6875 -8.296875 C 2.082031 -9.140625 2.632812 -9.785156 3.34375 -10.234375 C 4.0625 -10.691406 4.894531 -10.921875 5.84375 -10.921875 Z M 5.8125 -9.484375 C 4.976562 -9.484375 4.316406 -9.210938 3.828125 -8.671875 C 3.335938 -8.128906 3.046875 -7.378906 2.953125 -6.421875 L 8.421875 -6.421875 C 8.410156 -7.328125 8.195312 -8.0625 7.78125 -8.625 C 7.363281 -9.195312 6.707031 -9.484375 5.8125 -9.484375 Z M 5.8125 -9.484375 "/></g></g><g style="fill:#ffffff;fill-opacity:1;"><g transform="translate(303.528048, 330.499987)"><path style="stroke:none" d="M 6 0.203125 C 5.039062 0.203125 4.191406 0.0078125 3.453125 -0.375 C 2.722656 -0.757812 2.144531 -1.359375 1.71875 -2.171875 C 1.300781 -2.992188 1.09375 -4.035156 1.09375 -5.296875 C 1.09375 -6.617188 1.3125 -7.691406 1.75 -8.515625 C 2.1875 -9.347656 2.785156 -9.957031 3.546875 -10.34375 C 4.304688 -10.726562 5.164062 -10.921875 6.125 -10.921875 C 6.65625 -10.921875 7.175781 -10.863281 7.6875 -10.75 C 8.195312 -10.632812 8.613281 -10.5 8.9375 -10.34375 L 8.40625 -8.875 C 8.082031 -9 7.707031 -9.113281 7.28125 -9.21875 C 6.851562 -9.320312 6.453125 -9.375 6.078125 -9.375 C 3.972656 -9.375 2.921875 -8.019531 2.921875 -5.3125 C 2.921875 -4.019531 3.175781 -3.03125 3.6875 -2.34375 C 4.195312 -1.65625 4.960938 -1.3125 5.984375 -1.3125 C 6.554688 -1.3125 7.066406 -1.375 7.515625 -1.5 C 7.972656 -1.625 8.390625 -1.769531 8.765625 -1.9375 L 8.765625 -0.375 C 8.398438 -0.1875 8 -0.046875 7.5625 0.046875 C 7.132812 0.148438 6.613281 0.203125 6 0.203125 Z M 6 0.203125 "/></g></g><g style="fill:#ffffff;fill-opacity:1;"><g transform="translate(313.124262, 330.499987)"><path style="stroke:none" d="M 5.765625 -10.90625 C 7.066406 -10.90625 8.03125 -10.617188 8.65625 -10.046875 C 9.28125 -9.472656 9.59375 -8.554688 9.59375 -7.296875 L 9.59375 0 L 8.3125 0 L 7.984375 -1.515625 L 7.90625 -1.515625 C 7.4375 -0.929688 6.941406 -0.5 6.421875 -0.21875 C 5.898438 0.0625 5.191406 0.203125 4.296875 0.203125 C 3.328125 0.203125 2.519531 -0.0507812 1.875 -0.5625 C 1.238281 -1.082031 0.921875 -1.890625 0.921875 -2.984375 C 0.921875 -4.046875 1.335938 -4.863281 2.171875 -5.4375 C 3.015625 -6.019531 4.3125 -6.34375 6.0625 -6.40625 L 7.875 -6.453125 L 7.875 -7.09375 C 7.875 -7.988281 7.679688 -8.609375 7.296875 -8.953125 C 6.910156 -9.304688 6.363281 -9.484375 5.65625 -9.484375 C 5.09375 -9.484375 4.554688 -9.398438 4.046875 -9.234375 C 3.546875 -9.066406 3.078125 -8.875 2.640625 -8.65625 L 2.09375 -9.984375 C 2.5625 -10.234375 3.113281 -10.445312 3.75 -10.625 C 4.394531 -10.8125 5.066406 -10.90625 5.765625 -10.90625 Z M 7.859375 -5.234375 L 6.28125 -5.1875 C 4.945312 -5.125 4.019531 -4.90625 3.5 -4.53125 C 2.988281 -4.164062 2.734375 -3.640625 2.734375 -2.953125 C 2.734375 -2.359375 2.914062 -1.921875 3.28125 -1.640625 C 3.65625 -1.359375 4.128906 -1.21875 4.703125 -1.21875 C 5.597656 -1.21875 6.347656 -1.46875 6.953125 -1.96875 C 7.554688 -2.46875 7.859375 -3.238281 7.859375 -4.28125 Z M 7.859375 -5.234375 "/></g></g><g transform="matrix(1,0,0,1,103,14)"><g clip-path="url(#e20fe2cdac)"><g clip-rule="nonzero" clip-path="url(#e8e061ec5e)"><path style=" stroke:none;fill-rule:nonzero;fill:#000000;fill-opacity:1;" d="M 167.144531 59.359375 L 167.144531 224.78125 C 167.144531 228.046875 169.773438 230.691406 173.019531 230.691406 C 176.261719 230.691406 178.890625 228.046875 178.890625 224.78125 L 178.890625 59.359375 C 178.890625 56.097656 176.261719 53.449219 173.019531 53.449219 C 169.773438 53.449219 167.144531 56.097656 167.144531 59.359375 Z M 167.144531 59.359375 "/></g><g clip-rule="nonzero" clip-path="url(#e7b50607b0)"><path style=" stroke:none;fill-rule:evenodd;fill:#ffffff;fill-opacity:1;" d="M 0.96875 70.242188 L 148.699219 70.242188 L 148.699219 86.054688 C 167.734375 81.046875 189.304688 86.050781 201.347656 102.445312 C 225.214844 134.980469 207.4375 176.167969 170.714844 191.96875 C 163.585938 195.039062 156.054688 197.664062 148.699219 200.207031 L 148.699219 218.996094 C 148.699219 235.644531 135.097656 249.277344 118.445312 249.277344 L 31.230469 249.277344 C 14.589844 249.277344 0.96875 235.644531 0.96875 218.996094 Z M 75.332031 0.75 C 78.441406 21.566406 34.246094 44.003906 75.332031 60.910156 C 58.042969 41.699219 108.894531 21.78125 75.332031 0.75 Z M 97.246094 9.242188 C 99.476562 24.175781 67.75 40.285156 97.246094 52.414062 C 84.832031 38.640625 121.339844 24.339844 97.246094 9.242188 Z M 51.800781 9.242188 C 54.019531 24.175781 22.316406 40.285156 51.800781 52.414062 C 39.382812 38.640625 75.886719 24.339844 51.800781 9.242188 Z M 148.699219 106.296875 L 148.699219 181.621094 C 154.082031 179.75 159.554688 177.789062 164.613281 175.394531 C 188.859375 163.929688 196.953125 132.414062 178.769531 114.34375 C 170.992188 106.605469 159.382812 104.117188 148.699219 106.296875 Z M 148.699219 106.296875 "/></g><g clip-rule="nonzero" clip-path="url(#faac18d2a5)"><path style=" stroke:none;fill-rule:nonzero;fill:#000000;fill-opacity:1;" d="M 120.609375 107.960938 L 120.609375 246.050781 C 120.609375 248.773438 122.835938 250.980469 125.582031 250.980469 C 128.324219 250.980469 130.550781 248.773438 130.550781 246.050781 L 130.550781 107.960938 C 130.550781 105.238281 128.324219 103.027344 125.582031 103.027344 C 122.835938 103.027344 120.609375 105.238281 120.609375 107.960938 Z M 120.609375 107.960938 "/></g><g clip-rule="nonzero" clip-path="url(#453860b94b)"><path style=" stroke:none;fill-rule:nonzero;fill:#000000;fill-opacity:1;" d="M 148.207031 72.84375 L 148.207031 210.933594 C 148.207031 213.65625 150.429688 215.863281 153.175781 215.863281 C 155.917969 215.863281 158.144531 213.65625 158.144531 210.933594 L 158.144531 72.84375 C 158.144531 70.117188 155.917969 67.910156 153.175781 67.910156 C 150.429688 67.910156 148.207031 70.117188 148.207031 72.84375 Z M 148.207031 72.84375 "/></g></g></g></g></svg>